<svg width="360" height="86" viewBox="0 0 360 86" fill="none" xmlns="http://www.w3.org/2000/svg">
  <path fill-rule="evenodd" clip-rule="evenodd" d="M0 84.6869C11.742 86.3392 54.7077 81.3822 78.1917 71.4682C101.676 61.5542 125.16 38.4216 148.644 21.8982C172.128 5.37491 195.612 -4.53908 219.096 2.07025C242.58 8.67958 266.064 31.8122 289.548 41.7262C313.032 51.6402 360 92 354.129 84.6869H360H348.258C336.516 84.6869 313.032 84.6869 289.548 84.6869C266.064 84.6869 242.58 84.6869 219.096 84.6869C195.612 84.6869 172.128 84.6869 148.644 84.6869C125.16 84.6869 101.676 84.6869 78.1917 84.6869C54.7077 84.6869 31.2237 84.6869 19.4817 84.6869H7.73964H0Z" fill="#3C3C3C" fill-opacity="0.4" />
</svg>